<svg xmlns="http://www.w3.org/2000/svg" width="53" height="53" viewBox="0 0 53 53" fill="none"><path fill-rule="evenodd" clip-rule="evenodd" d="M3.64855 49.3894C3.94879 49.6904 4.30542 49.9292 4.69802 50.0922C5.09062 50.2552 5.51148 50.3392 5.93651 50.3394C6.36154 50.3395 6.78239 50.2559 7.17496 50.0931C7.56754 49.9304 7.92413 49.6919 8.22433 49.3911L43.8697 13.7458L43.877 47.1113C43.8746 47.5377 43.9565 47.9605 44.118 48.3553C44.2795 48.7501 44.5175 49.1091 44.8183 49.4116C45.119 49.7142 45.4766 49.9543 45.8704 50.1182C46.2642 50.282 46.6865 50.3664 47.113 50.3665C47.5395 50.3665 47.9618 50.2823 48.3555 50.1185C48.7492 49.9548 49.1067 49.7148 49.4072 49.4123C49.7078 49.1099 49.9456 48.751 50.1069 48.3562C50.2682 47.9615 50.3498 47.5387 50.3471 47.1122L50.3398 5.93809C50.3398 5.51327 50.2561 5.09258 50.0934 4.70005C49.9308 4.30752 49.6924 3.95084 49.392 3.65038C49.0915 3.34992 48.7348 3.11157 48.3423 2.94894C47.9498 2.78631 47.5291 2.70259 47.1043 2.70257L5.93013 2.69525C5.50365 2.69254 5.08087 2.77418 4.68613 2.93548C4.29139 3.09677 3.93247 3.33455 3.63003 3.63511C3.32758 3.93568 3.08758 4.29311 2.92383 4.68684C2.76008 5.08057 2.67582 5.50283 2.67588 5.92932C2.67594 6.35581 2.76034 6.77812 2.92421 7.17195C3.08808 7.56577 3.32818 7.92335 3.63072 8.2241C3.93325 8.52484 4.29224 8.76283 4.68703 8.92436C5.08182 9.0859 5.50462 9.16779 5.9311 9.16533L39.2967 9.17279L3.65133 44.8181C3.3508 45.1179 3.11232 45.4739 2.94951 45.8659C2.78671 46.2579 2.70278 46.6782 2.70252 47.1028C2.70226 47.5273 2.78568 47.9478 2.94801 48.3402C3.11033 48.7325 3.34838 49.0891 3.64855 49.3894ZM2.12385 50.9141C1.62346 50.4134 1.22658 49.819 0.955872 49.165C0.685163 48.5109 0.54593 47.81 0.546126 47.1023C0.546321 46.3946 0.685942 45.6938 0.957013 45.0402C1.22808 44.3865 1.62529 43.7928 2.12595 43.2927L34.0904 11.3283L5.93139 11.3217C5.22135 11.3247 4.51765 11.1873 3.86071 10.9176C3.20376 10.6479 2.6065 10.2511 2.10322 9.74997C1.59993 9.24886 1.20054 8.65333 0.927959 7.99756C0.655381 7.34179 0.514988 6.6387 0.514841 5.92865C0.514695 5.2186 0.654798 4.51557 0.927106 3.85993C1.19941 3.20429 1.59856 2.60895 2.10164 2.10809C2.60472 1.60723 3.20181 1.21072 3.85865 0.941307C4.51549 0.671897 5.21913 0.534898 5.92917 0.538179L47.1034 0.545586C48.5333 0.54597 49.9048 1.11434 50.9161 2.12567C51.9274 3.137 52.4958 4.50846 52.4962 5.93838L52.5036 47.1126C52.4881 48.5321 51.9135 49.8879 50.9044 50.8859C49.8954 51.8839 48.5332 52.4435 47.1137 52.4433C45.6941 52.4431 44.3317 51.883 43.322 50.8847C42.3124 49.8864 41.7369 48.5304 41.7206 47.111L41.714 18.952L9.74961 50.9164C9.24914 51.4173 8.65482 51.8146 8.00063 52.0855C7.34643 52.3565 6.64518 52.4959 5.93696 52.4957C5.22875 52.4955 4.52746 52.3557 3.87318 52.0843C3.2189 51.8129 2.62447 51.4153 2.12385 50.9141Z" fill="white"></path></svg>