<svg width="21" height="20" viewBox="0 0 21 20" fill="none" xmlns="http://www.w3.org/2000/svg">
<mask id="mask0_334_2302" style="mask-type:alpha" maskUnits="userSpaceOnUse" x="0" y="0" width="21" height="20">
<rect x="0.5" width="20" height="20" fill="#D9D9D9"/>
</mask>
<g mask="url(#mask0_334_2302)">
<path d="M7.66732 18.75L6.08398 16.0833L3.08398 15.4167L3.37565 12.3333L1.33398 10L3.37565 7.66667L3.08398 4.58333L6.08398 3.91667L7.66732 1.25L10.5007 2.45833L13.334 1.25L14.9173 3.91667L17.9173 4.58333L17.6257 7.66667L19.6673 10L17.6257 12.3333L17.9173 15.4167L14.9173 16.0833L13.334 18.75L10.5007 17.5417L7.66732 18.75ZM8.37565 16.625L10.5007 15.7083L12.6673 16.625L13.834 14.625L16.1257 14.0833L15.9173 11.75L17.459 10L15.9173 8.20833L16.1257 5.875L13.834 5.375L12.6257 3.375L10.5007 4.29167L8.33399 3.375L7.16732 5.375L4.87565 5.875L5.08398 8.20833L3.54232 10L5.08398 11.75L4.87565 14.125L7.16732 14.625L8.37565 16.625ZM9.62565 12.9583L14.334 8.25L13.1673 7.04167L9.62565 10.5833L7.83398 8.83333L6.66732 10L9.62565 12.9583Z" fill="#0075FF"/>
</g>
</svg>
