<svg xmlns="http://www.w3.org/2000/svg" width="603" height="80" viewBox="0 0 603 80">
  <defs>
    <style>
      .cls-1 {
        fill: #ffffff;
      }
    </style>
  </defs>
  <path id="Bismount" class="cls-1" d="M581.038,11.027V78.2H568.459V11.027H547.02V0.962h55.567V11.027H581.038ZM485.766,21.2v57H473.3V1.071h12.47l37.518,57.217V1.071h12.47V78.2h-12.47ZM426.808,78.965q-13.346,0-21.439-8.15T397.275,46.8V0.962h12.469V46.8q0,10.285,4.54,15.316t12.743,5.032q8.094,0,12.634-5.032T444.2,46.8V0.962h12.47V46.8q0,15.864-8.2,24.014T426.808,78.965Zm-62.293-4.978a39.8,39.8,0,0,1-38.941,0,36.733,36.733,0,0,1-13.727-14.113,41.173,41.173,0,0,1-5.032-20.4,41.178,41.178,0,0,1,5.032-20.4A36.341,36.341,0,0,1,325.574,5.009a40.181,40.181,0,0,1,38.941,0,35.972,35.972,0,0,1,13.672,14.058,41.544,41.544,0,0,1,4.977,20.4,41.539,41.539,0,0,1-4.977,20.4A36.358,36.358,0,0,1,364.515,73.987ZM367.14,24.7a23.238,23.238,0,0,0-8.97-9.737A25.226,25.226,0,0,0,345.1,11.574a25.725,25.725,0,0,0-13.235,3.391A23.111,23.111,0,0,0,322.84,24.7a32.158,32.158,0,0,0-3.227,14.769A32.148,32.148,0,0,0,322.84,54.24a23.091,23.091,0,0,0,9.024,9.737A25.709,25.709,0,0,0,345.1,67.368a25.21,25.21,0,0,0,13.071-3.391,23.217,23.217,0,0,0,8.97-9.737,32.173,32.173,0,0,0,3.227-14.769A32.183,32.183,0,0,0,367.14,24.7Zm-87.452-3.5L257.7,78.2H246.764l-22.1-57v57H212.2V2.165h15.094l25.159,60.718,24.72-60.718h15.095V78.2H279.688v-57ZM165.437,30.883q3.336,1.477,9.134,3.446a80.4,80.4,0,0,1,11.977,4.65,21.725,21.725,0,0,1,7.876,6.838q3.225,4.487,3.227,11.815a21.207,21.207,0,0,1-2.735,10.557,19.886,19.886,0,0,1-8.313,7.822,28.929,28.929,0,0,1-13.673,2.954,34.194,34.194,0,0,1-14.11-2.79,24.539,24.539,0,0,1-9.954-7.822,22.2,22.2,0,0,1-4.266-11.6h13.345a13.687,13.687,0,0,0,4.32,8.643q3.774,3.61,10.118,3.61,5.686,0,8.8-3.063a10.558,10.558,0,0,0,3.118-7.877,10.141,10.141,0,0,0-2.3-6.838,16.146,16.146,0,0,0-5.688-4.212q-3.391-1.531-9.3-3.5a80.961,80.961,0,0,1-11.758-4.595,21.37,21.37,0,0,1-7.712-6.673q-3.174-4.374-3.172-11.487a19.591,19.591,0,0,1,3.063-10.94,19.909,19.909,0,0,1,8.75-7.275A31.59,31.59,0,0,1,169.32-.023q11.814,0,18.76,5.689a21.44,21.44,0,0,1,7.93,14.879H182.556a13.135,13.135,0,0,0-4.1-7.494q-3.337-3.118-9.134-3.118a12.615,12.615,0,0,0-8.422,2.68q-3.174,2.682-3.172,7.713a9.688,9.688,0,0,0,2.187,6.509A15.191,15.191,0,0,0,165.437,30.883ZM117.254,0.962h12.47V78.2h-12.47V0.962ZM104,57.9q0,9.726-6.469,15.416t-18.75,5.691H0V0.993H78.236q11.621,0,17.818,5.249t6.2,14.421q0,7.4-3.838,11.99a18.573,18.573,0,0,1-10.088,6.133A19.232,19.232,0,0,1,104,57.9ZM89.42,22.874a10.844,10.844,0,0,0-3.454-8.509q-3.454-3.093-10.471-3.094H12.5V34.587H75.933q6.579,0,10.033-3.094T89.42,22.874Zm-2.193,24.2Q83.28,43.76,76.153,43.76H12.5V68.624h63.76q7.126,0,11.019-3.26t3.892-9.117A11.331,11.331,0,0,0,87.227,47.075Z"/>
</svg>
