<svg xmlns="http://www.w3.org/2000/svg" width="496" height="358" viewBox="0 0 496 358">
  <defs>
    <style>
      .cls-1 {
        fill-rule: evenodd;
      }
    </style>
  </defs>
  <path class="cls-1" d="M355.2,128.142H32.8c-13.7,0-24.8-11.45-24.8-25.572S19.1,77,32.8,77H355.2C368.9,77,380,88.448,380,102.57S368.9,128.142,355.2,128.142ZM8,256c0,14.122,11.1,25.571,24.8,25.571H479.2c13.7,0,24.8-11.449,24.8-25.571s-11.1-25.572-24.8-25.572H32.8C19.1,230.428,8,241.878,8,256ZM8,409.429C8,423.551,19.1,435,32.8,435H256c13.695,0,24.8-11.45,24.8-25.572S269.7,383.858,256,383.858H32.8C19.1,383.858,8,395.307,8,409.429Z" transform="translate(-8 -77)"/>
</svg>
